<svg id="visual" viewBox="0 0 960 540" width="960" height="540" xmlns="http://www.w3.org/2000/svg" xmlns:xlink="http://www.w3.org/1999/xlink" version="1.1"><rect x="0" y="0" width="960" height="540" fill="#001122"></rect><path d="M0 229L11.5 228.3C23 227.7 46 226.3 68.8 228.8C91.7 231.3 114.3 237.7 137.2 238.2C160 238.7 183 233.3 205.8 230.3C228.7 227.3 251.3 226.7 274.2 226.3C297 226 320 226 342.8 229.3C365.7 232.7 388.3 239.3 411.2 243.2C434 247 457 248 480 247.8C503 247.7 526 246.3 548.8 243.3C571.7 240.3 594.3 235.7 617.2 234.8C640 234 663 237 685.8 239C708.7 241 731.3 242 754.2 241.2C777 240.3 800 237.7 822.8 234C845.7 230.3 868.3 225.7 891.2 224.5C914 223.3 937 225.7 948.5 226.8L960 228L960 0L948.5 0C937 0 914 0 891.2 0C868.3 0 845.7 0 822.8 0C800 0 777 0 754.2 0C731.3 0 708.7 0 685.8 0C663 0 640 0 617.2 0C594.3 0 571.7 0 548.8 0C526 0 503 0 480 0C457 0 434 0 411.2 0C388.3 0 365.7 0 342.8 0C320 0 297 0 274.2 0C251.3 0 228.7 0 205.8 0C183 0 160 0 137.2 0C114.3 0 91.7 0 68.8 0C46 0 23 0 11.5 0L0 0Z" fill="#c62368"></path><path d="M0 148L11.5 148.5C23 149 46 150 68.8 150C91.7 150 114.3 149 137.2 150.8C160 152.7 183 157.3 205.8 159.8C228.7 162.3 251.3 162.7 274.2 162.2C297 161.7 320 160.3 342.8 158.7C365.7 157 388.3 155 411.2 152.3C434 149.7 457 146.3 480 148.5C503 150.7 526 158.3 548.8 161.3C571.7 164.3 594.3 162.7 617.2 161.2C640 159.7 663 158.3 685.8 159.8C708.7 161.3 731.3 165.7 754.2 168C777 170.3 800 170.7 822.8 169.8C845.7 169 868.3 167 891.2 161.8C914 156.7 937 148.3 948.5 144.2L960 140L960 0L948.5 0C937 0 914 0 891.2 0C868.3 0 845.7 0 822.8 0C800 0 777 0 754.2 0C731.3 0 708.7 0 685.8 0C663 0 640 0 617.2 0C594.3 0 571.7 0 548.8 0C526 0 503 0 480 0C457 0 434 0 411.2 0C388.3 0 365.7 0 342.8 0C320 0 297 0 274.2 0C251.3 0 228.7 0 205.8 0C183 0 160 0 137.2 0C114.3 0 91.7 0 68.8 0C46 0 23 0 11.5 0L0 0Z" fill="#e34c67"></path><path d="M0 64L11.5 67C23 70 46 76 68.8 77.7C91.7 79.3 114.3 76.7 137.2 77.5C160 78.3 183 82.7 205.8 83.3C228.7 84 251.3 81 274.2 82.3C297 83.7 320 89.3 342.8 88.5C365.7 87.7 388.3 80.3 411.2 75.3C434 70.3 457 67.7 480 68.5C503 69.3 526 73.7 548.8 77.8C571.7 82 594.3 86 617.2 85.3C640 84.7 663 79.3 685.8 77.2C708.7 75 731.3 76 754.2 79.5C777 83 800 89 822.8 90.7C845.7 92.3 868.3 89.7 891.2 86.8C914 84 937 81 948.5 79.5L960 78L960 0L948.5 0C937 0 914 0 891.2 0C868.3 0 845.7 0 822.8 0C800 0 777 0 754.2 0C731.3 0 708.7 0 685.8 0C663 0 640 0 617.2 0C594.3 0 571.7 0 548.8 0C526 0 503 0 480 0C457 0 434 0 411.2 0C388.3 0 365.7 0 342.8 0C320 0 297 0 274.2 0C251.3 0 228.7 0 205.8 0C183 0 160 0 137.2 0C114.3 0 91.7 0 68.8 0C46 0 23 0 11.5 0L0 0Z" fill="#fa7268"></path></svg>